<svg width="67" height="67" viewBox="0 0 67 67" fill="none" xmlns="http://www.w3.org/2000/svg">
<path d="M25.5639 57.987V49.4257C25.5638 47.2481 27.3391 45.4787 29.5386 45.4641H37.5956C39.8056 45.4641 41.5972 47.2378 41.5972 49.4257V58.0136C41.5967 59.8624 43.0873 61.3735 44.9543 61.4168H50.3256C55.6801 61.4168 60.0208 57.1196 60.0208 51.8186V27.4641C59.9922 25.3787 59.0032 23.4204 57.3351 22.1465L38.9653 7.49663C35.7471 4.94579 31.1723 4.94579 27.9541 7.49663L9.66478 22.1731C7.99043 23.4418 6.99975 25.4034 6.97913 27.4907V51.8186C6.97913 57.1196 11.3198 61.4168 16.6743 61.4168H22.0456C23.959 61.4168 25.5101 59.8812 25.5101 57.987" stroke="black" stroke-width="4.1875" stroke-linecap="round" stroke-linejoin="round"/>
</svg>
