<svg width="227" height="67" viewBox="0 0 227 67" fill="none" xmlns="http://www.w3.org/2000/svg">
<path d="M48.7914 0.200422C40.7437 0.31397 34.1331 0.407112 34.0989 0.418461C34.0649 0.42983 37.2444 3.63886 41.1585 7.55996L48.2642 14.6778L60.4436 14.7129L72.6116 14.7471L73.3574 15.0115C74.2799 15.3195 75.126 15.8218 75.8389 16.4843C76.5515 17.1471 77.1146 17.9547 77.4903 18.8533C79.0976 22.4064 77.7316 26.8918 74.5635 28.4895C73.1978 29.1709 72.8417 29.2255 68.9958 29.2369C65.9887 29.2482 65.4027 29.2823 64.8757 29.456C63.7966 29.8126 63.3942 30.4452 63.7161 31.2957C63.8533 31.6636 67.2401 35.1248 71.8092 39.5852C75.8502 43.5176 75.7004 43.4258 77.2386 42.9205C77.7203 42.7591 79.0521 42.162 80.1857 41.61C87.2337 38.1489 91.3666 33.284 92.6404 26.9249C92.9587 24.9331 93.0396 22.9105 92.8818 20.8995C92.2664 15.7745 90.2575 10.9173 87.0739 6.85828C84.4227 3.71844 79.7505 1.44165 74.0116 0.499139C70.3833 -0.110655 71.1065 -0.0993679 48.7914 0.200422Z" fill="white"/>
<path d="M13.2103 0.626199C4.10721 0.739747 0.801947 0.821581 0.594518 0.924916C0.420049 1.02117 0.282499 1.17271 0.203496 1.3559C0.124493 1.53906 0.108579 1.74344 0.158181 1.9367C0.203521 2.09682 2.94771 4.93792 6.4604 8.44569L12.6946 14.6912H41.5057L34.3885 7.56115L27.2657 0.430878L26.4041 0.442247C25.9372 0.453616 19.992 0.534213 13.2103 0.626199Z" fill="white"/>
<path d="M51.478 33.8721C49.2052 36.0807 47.1163 38.1499 46.817 38.4724C46.1855 39.1389 46.0597 39.5307 46.2774 40.002C46.3693 40.1747 52.303 46.1659 59.4666 53.296C71.0283 64.8072 72.5642 66.3028 73.1265 66.5434C73.7227 66.8081 73.9415 66.8308 77.2591 66.9228C82.0799 67.0728 89.7025 66.9922 90.2296 66.7842C90.4465 66.7334 90.6485 66.6329 90.8201 66.4907C90.9915 66.3484 91.1276 66.1682 91.2178 65.9642C91.3078 65.7601 91.3496 65.5381 91.3393 65.3152C91.3292 65.0924 91.2675 64.8749 91.1591 64.6799C90.8374 64.0248 57.2962 30.3305 56.6886 30.0544C55.7818 29.6524 55.9655 29.5138 51.478 33.8721Z" fill="white"/>
<path d="M32.2276 32.7105C32.1143 32.7458 29.955 34.942 27.4295 37.5935C23.5156 41.7223 22.8377 42.4763 22.8717 42.7342C22.8944 42.9521 25.8108 45.9308 34.523 54.5907C43.8175 63.8363 46.2547 66.1937 46.7024 66.4005C47.2305 66.6537 47.4709 66.6652 52.0173 66.7911C54.6344 66.8604 58.4227 66.8945 60.4426 66.8718C63.656 66.8377 64.1615 66.815 64.4834 66.6446C64.7449 66.5253 64.9647 66.3299 65.114 66.0838C65.2636 65.8378 65.3356 65.5524 65.321 65.2648V64.6972L49.6868 48.989C41.0722 40.3529 33.8349 33.1306 33.5913 32.9581C33.4026 32.8062 33.1789 32.7039 32.9408 32.6605C32.7027 32.6174 32.4574 32.6345 32.2276 32.7105Z" fill="white"/>
<path d="M18.6483 46.2911C18.442 46.3944 14.2516 50.4653 9.32767 55.3188C-0.429442 64.9324 -0.0961883 64.5531 0.0409644 65.7148C0.0412789 65.8675 0.0741981 66.0185 0.137544 66.1574C0.200889 66.2963 0.293165 66.4199 0.408187 66.5199L0.706297 66.7847H18.2018L18.6268 66.5199C18.8535 66.3825 21.2667 64.0591 23.9757 61.3679C28.2684 57.1129 28.9349 56.3998 29.0494 55.9865C29.3134 54.9746 29.3361 54.9975 24.7104 50.5006C22.3912 48.2465 20.3372 46.3261 20.1298 46.2341C19.8944 46.1318 19.6391 46.0839 19.3826 46.0936C19.1262 46.1035 18.8752 46.171 18.6483 46.2911Z" fill="white"/>
<path d="M135.481 34.7171H129.102L122.585 25.3584C122.175 25.404 121.765 25.404 121.355 25.404H114.155V34.7171H108.231V2.76033H121.355C129.739 2.76033 134.934 7.05166 134.934 14.1277C134.934 18.967 132.474 22.5278 128.144 24.2171L135.481 34.7171ZM128.965 14.1277C128.965 10.1104 126.276 7.7821 121.081 7.7821H114.155V20.5191H121.081C126.276 20.5191 128.965 18.1452 128.965 14.1277ZM165.44 34.7171L162.251 27.3215H146.301L143.157 34.7171H137.051L151.405 2.76033H157.238L171.638 34.7171H165.44ZM148.306 22.6648H160.291L154.276 8.69516L148.306 22.6648ZM185.583 35.1735C180.616 35.1735 175.649 33.6214 173.006 31.3389L175.056 26.7278C177.608 28.7823 181.664 30.2432 185.583 30.2432C190.55 30.2432 192.646 28.4627 192.646 26.0888C192.646 19.1952 173.69 23.7149 173.69 11.8452C173.69 6.68644 177.791 2.3038 186.54 2.3038C190.368 2.3038 194.378 3.30816 197.158 5.13426L195.289 9.74515C192.418 8.05602 189.274 7.23427 186.494 7.23427C181.573 7.23427 179.568 9.15168 179.568 11.5712C179.568 18.3736 198.479 13.9451 198.479 25.678C198.479 30.7911 194.332 35.1735 185.583 35.1735ZM210.378 34.7171V7.7821H199.807V2.76033H226.876V7.7821H216.304V34.7171H210.378Z" fill="white"/>
<path d="M130.857 66.5754H128.045L128.016 51.6078L120.604 64.0808H119.257L111.845 51.6959V66.5754H109.033V46.0317H111.435L119.989 60.4709L128.426 46.0317H130.828L130.857 66.5754ZM146.269 66.8102C139.97 66.8102 135.342 62.3199 135.342 56.3035C135.342 50.2872 139.97 45.7969 146.269 45.7969C152.508 45.7969 157.137 50.2577 157.137 56.3035C157.137 62.3492 152.508 66.8102 146.269 66.8102ZM146.269 64.1982C150.809 64.1982 154.208 60.8524 154.208 56.3035C154.208 51.7545 150.809 48.4089 146.269 48.4089C141.669 48.4089 138.271 51.7545 138.271 56.3035C138.271 60.8524 141.669 64.1982 146.269 64.1982ZM175.412 55.9219C177.726 56.5676 179.25 58.2992 179.25 61.0286C179.25 64.5504 176.584 66.5754 171.399 66.5754H161.614V46.0317H170.813C175.529 46.0317 178.166 48.0274 178.166 51.3437C178.166 53.5742 177.023 55.1296 175.412 55.9219ZM170.549 48.4089H164.544V54.9829H170.549C173.537 54.9829 175.236 53.8676 175.236 51.6959C175.236 49.5242 173.537 48.4089 170.549 48.4089ZM171.282 64.1982C174.533 64.1982 176.291 63.171 176.291 60.7938C176.291 58.4166 174.533 57.3601 171.282 57.3601H164.544V64.1982H171.282ZM183.786 66.5754V46.0317H186.715V66.5754H183.786ZM192.854 66.5754V46.0317H195.784V64.022H206.887V66.5754H192.854ZM213.177 64.022H225.129V66.5754H210.249V46.0317H224.719V48.5849H213.177V54.8948H223.459V57.3894H213.177V64.022Z" fill="white"/>
</svg>
