<svg width="51" height="55" viewBox="0 0 51 55" fill="none" xmlns="http://www.w3.org/2000/svg">
<path fill-rule="evenodd" clip-rule="evenodd" d="M48.0978 16.7078L46.4699 13.8829C45.0927 11.4927 42.0407 10.6681 39.6471 12.0396C38.5078 12.7108 37.1483 12.9012 35.8684 12.5688C34.5884 12.2365 33.4933 11.4087 32.8244 10.2681C32.3941 9.54301 32.1628 8.71719 32.1541 7.8741C32.1929 6.52242 31.683 5.21258 30.7404 4.24297C29.7979 3.27336 28.503 2.72656 27.1507 2.72711H23.871C22.5462 2.72711 21.2761 3.255 20.3416 4.194C19.407 5.13301 18.8852 6.4057 18.8916 7.73047C18.8523 10.4657 16.6237 12.6623 13.8883 12.662C13.0452 12.6532 12.2194 12.422 11.4943 11.9917C9.10078 10.6202 6.04875 11.4448 4.67156 13.835L2.92397 16.7078C1.54845 19.095 2.36181 22.1451 4.74337 23.5305C6.29143 24.4243 7.24508 26.076 7.24508 27.8636C7.24508 29.6511 6.29143 31.3029 4.74337 32.1966C2.36483 33.5727 1.55058 36.6154 2.92397 38.9954L4.5758 41.8442C5.22107 43.0086 6.30373 43.8677 7.5842 44.2317C8.86466 44.5956 10.2374 44.4342 11.3986 43.7833C12.5401 43.1173 13.9003 42.9348 15.1771 43.2764C16.4538 43.6181 17.5411 44.4556 18.1974 45.6027C18.6277 46.3278 18.8589 47.1536 18.8677 47.9967C18.8677 50.76 21.1077 53 23.871 53H27.1507C29.9047 53 32.1409 50.7745 32.1541 48.0206C32.1477 46.6917 32.6728 45.4153 33.6125 44.4756C34.5522 43.5359 35.8285 43.0109 37.1574 43.0173C37.9985 43.0398 38.8209 43.2701 39.5514 43.6876C41.9387 45.0631 44.9888 44.2497 46.3741 41.8682L48.0978 38.9954C48.765 37.8503 48.9481 36.4864 48.6066 35.2058C48.2651 33.9252 47.4272 32.8336 46.2784 32.1727C45.1296 31.5118 44.2917 30.4202 43.9502 29.1396C43.6087 27.859 43.7918 26.4951 44.459 25.3499C44.8928 24.5924 45.5209 23.9644 46.2784 23.5305C48.6457 22.1459 49.4571 19.1136 48.0978 16.7317V16.7078Z" stroke="white" stroke-width="3.92308" stroke-linecap="round" stroke-linejoin="round"/>
<path d="M25.5229 34.7581C29.3306 34.7581 32.4174 31.6713 32.4174 27.8636C32.4174 24.0558 29.3306 20.969 25.5229 20.969C21.7151 20.969 18.6283 24.0558 18.6283 27.8636C18.6283 31.6713 21.7151 34.7581 25.5229 34.7581Z" stroke="white" stroke-width="3.92308" stroke-linecap="round" stroke-linejoin="round"/>
</svg>
